<?xml version="1.0" standalone="no"?>
<!DOCTYPE svg PUBLIC "-//W3C//DTD SVG 20010904//EN"
 "http://www.w3.org/TR/2001/REC-SVG-20010904/DTD/svg10.dtd">
<svg version="1.0" xmlns="http://www.w3.org/2000/svg"
 width="512.000000pt" height="512.000000pt" viewBox="0 0 512.000000 512.000000"
 preserveAspectRatio="xMidYMid meet">

<g transform="translate(0.000000,512.000000) scale(0.100000,-0.100000)"
fill="#FFFFFF" stroke="none">
<path d="M125 4594 c-45 -23 -85 -65 -106 -109 -18 -38 -19 -102 -19 -1581 0
-1126 3 -1550 11 -1575 19 -56 59 -100 113 -125 l51 -24 2385 0 2385 0 51 24
c54 25 94 69 113 125 8 25 11 449 11 1575 0 1469 -1 1543 -19 1581 -19 43 -78
100 -118 116 -15 5 -964 9 -2426 9 -2155 0 -2405 -2 -2432 -16z m4785 -1539
l0 -1345 -2350 0 -2350 0 0 1345 0 1345 2350 0 2350 0 0 -1345z m-656 -1568
c11 -8 19 -26 19 -42 0 -37 -26 -55 -78 -55 -72 0 -108 48 -68 92 20 22 100
25 127 5z m266 -7 c42 -42 8 -90 -65 -90 -49 0 -85 25 -85 59 0 48 110 71 150
31z m262 3 c45 -40 6 -93 -69 -93 -45 0 -83 25 -83 55 0 8 9 24 20 35 26 26
105 28 132 3z"/>
<path d="M2140 960 l0 -110 -205 0 c-163 0 -212 -3 -235 -15 -38 -20 -121 -92
-142 -124 -35 -52 -17 -137 38 -180 27 -21 29 -21 964 -21 935 0 937 0 964 21
55 43 73 128 38 180 -21 32 -104 104 -142 124 -23 12 -72 15 -235 15 l-205 0
0 110 0 110 -420 0 -420 0 0 -110z"/>
</g>
</svg>
